<svg width="16" height="16" viewBox="0 0 16 16" fill="none" xmlns="http://www.w3.org/2000/svg">
<path d="M9.74512 14.3252C10.0117 14.3252 10.2236 14.2295 10.4082 14.0518L15.6514 8.93164C15.8838 8.69922 15.9932 8.45996 16 8.16602C16 7.87207 15.8906 7.62598 15.6514 7.40039L10.4082 2.27344C10.2236 2.0957 10.0049 2 9.74512 2C9.21191 2 8.78809 2.42383 8.78809 2.9502C8.78809 3.20996 8.89746 3.45605 9.08887 3.64746L13.7373 8.16602L9.08887 12.6777C8.89746 12.8691 8.78809 13.1152 8.78809 13.375C8.78809 13.9014 9.21191 14.3252 9.74512 14.3252Z" fill="#3C3C43" fill-opacity="0.3"/>
</svg>
