<svg width="22" height="44" viewBox="0 0 22 44" fill="none" xmlns="http://www.w3.org/2000/svg">
<g clip-path="url(#clip0_4_136)">
<path d="M19.0698 14.8267L19.6675 14.2124C19.9497 13.9219 19.958 13.5151 19.6758 13.2412L19.4849 13.042C19.2276 12.7847 18.8125 12.8179 18.5469 13.0835L17.9409 13.6812L19.0698 14.8267ZM9.51564 23.4595L11.1343 22.7539L18.4556 15.4326L17.3184 14.312L10.0054 21.6333L9.25832 23.1938C9.19191 23.335 9.35793 23.5259 9.51564 23.4595ZM6.07082 29.6353H15.8159C17.3018 29.6353 18.1734 28.772 18.1734 27.062V17.8232L16.8369 19.1597V26.9956C16.8369 27.8589 16.3638 28.2988 15.791 28.2988H6.08742C5.25734 28.2988 4.8008 27.8589 4.8008 26.9956V17.5742C4.8008 16.7109 5.25734 16.2627 6.08742 16.2627H13.2676L14.604 14.9263H6.07082C4.33595 14.9263 3.46437 15.7896 3.46437 17.4995V27.062C3.46437 28.7803 4.33595 29.6353 6.07082 29.6353Z" fill="#3478F6"/>
</g>
<defs>
<clipPath id="clip0_4_136">
<rect width="22" height="44" fill="white"/>
</clipPath>
</defs>
</svg>
