<svg width="24" height="22" viewBox="0 0 24 22" fill="none" xmlns="http://www.w3.org/2000/svg">
<path d="M10.2925 15.7466C11.6787 15.7466 12.957 15.2983 14.0029 14.5513L17.9375 18.4858C18.1201 18.6685 18.3608 18.7598 18.6182 18.7598C19.1577 18.7598 19.5396 18.3447 19.5396 17.8135C19.5396 17.5645 19.4565 17.332 19.2739 17.1494L15.3643 13.2314C16.186 12.1523 16.6758 10.8159 16.6758 9.36328C16.6758 5.85205 13.8037 2.97998 10.2925 2.97998C6.78125 2.97998 3.90918 5.85205 3.90918 9.36328C3.90918 12.8745 6.78125 15.7466 10.2925 15.7466ZM10.2925 14.3687C7.55322 14.3687 5.28711 12.1025 5.28711 9.36328C5.28711 6.62402 7.55322 4.35791 10.2925 4.35791C13.0317 4.35791 15.2979 6.62402 15.2979 9.36328C15.2979 12.1025 13.0317 14.3687 10.2925 14.3687Z" fill="#3C3C43" fill-opacity="0.6"/>
</svg>
